<svg width="50" height="50" viewBox="0 0 50 50" fill="none" xmlns="http://www.w3.org/2000/svg">
<path d="M47.6562 43.7498H46.875V15.6248C46.875 15.4176 46.7927 15.2189 46.6462 15.0724C46.4997 14.9259 46.3009 14.8436 46.0938 14.8436H33.8234C34.4422 13.0749 34.8495 11.2392 35.0367 9.37483H39.0625C39.217 9.3748 39.368 9.32896 39.4965 9.24312C39.6249 9.15727 39.725 9.03527 39.7841 8.89253C39.8432 8.7498 39.8587 8.59274 39.8286 8.44122C39.7985 8.28969 39.7241 8.1505 39.6148 8.04124L33.3648 1.79124C33.2183 1.64478 33.0197 1.5625 32.8125 1.5625C32.6053 1.5625 32.4067 1.64478 32.2602 1.79124L26.0102 8.04124C25.9009 8.1505 25.8265 8.28969 25.7964 8.44122C25.7663 8.59274 25.7818 8.7498 25.8409 8.89253C25.9 9.03527 26.0001 9.15727 26.1285 9.24312C26.257 9.32896 26.408 9.3748 26.5625 9.37483H29.0289C28.1166 11.4383 26.7997 13.2979 25.1562 14.8436H3.90625C3.69905 14.8436 3.50034 14.9259 3.35382 15.0724C3.20731 15.2189 3.125 15.4176 3.125 15.6248V43.7498H2.34375C2.13655 43.7498 1.93784 43.8321 1.79132 43.9787C1.64481 44.1252 1.5625 44.3239 1.5625 44.5311V46.0936C1.5625 46.7152 1.80943 47.3113 2.24897 47.7509C2.68851 48.1904 3.28465 48.4373 3.90625 48.4373H46.0938C46.7154 48.4373 47.3115 48.1904 47.751 47.7509C48.1906 47.3113 48.4375 46.7152 48.4375 46.0936V44.5311C48.4375 44.3239 48.3552 44.1252 48.2087 43.9787C48.0622 43.8321 47.8634 43.7498 47.6562 43.7498ZM30.9188 8.85999C30.9616 8.74199 30.9753 8.61542 30.9588 8.49099C30.9423 8.36656 30.8961 8.24793 30.8241 8.14515C30.752 8.04237 30.6563 7.95846 30.5449 7.90053C30.4336 7.84259 30.3099 7.81234 30.1844 7.81233H28.4484L32.8125 3.44827L37.1766 7.81233H34.3172C34.1186 7.8119 33.9273 7.88709 33.7822 8.02263C33.6371 8.15817 33.549 8.34388 33.5359 8.54202C33.1772 13.698 31.0525 18.5728 27.5197 22.3453C23.987 26.1179 19.262 28.5577 14.1406 29.2537L11.7188 29.5756V21.0084C15.8095 21.3764 19.9076 20.3856 23.3784 18.1894C26.8493 15.9933 29.4995 12.7143 30.9188 8.85999ZM4.6875 16.4061H23.2258C19.7399 18.8696 15.4546 19.9311 11.2219 19.3795L11.0437 19.3545C10.9331 19.3393 10.8205 19.348 10.7136 19.38C10.6066 19.412 10.5077 19.4666 10.4236 19.54C10.3395 19.6135 10.2721 19.7041 10.226 19.8058C10.1799 19.9075 10.1561 20.0179 10.1562 20.1295V30.4686C10.1562 30.6758 10.2386 30.8745 10.3851 31.021C10.5316 31.1675 10.7303 31.2498 10.9375 31.2498C10.972 31.2498 11.0064 31.2475 11.0406 31.2428L14.3438 30.803C18.466 30.2408 22.3718 28.6187 25.6795 26.0952C28.9872 23.5718 31.5835 20.2333 33.2148 16.4061H45.3125V43.7498H43.75V18.7498C43.75 18.5426 43.6677 18.3439 43.5212 18.1974C43.3747 18.0509 43.1759 17.9686 42.9688 17.9686H34.375V19.5311H42.1875V43.7498H7.8125V19.5311H9.375V17.9686H7.03125C6.82405 17.9686 6.62534 18.0509 6.47882 18.1974C6.33231 18.3439 6.25 18.5426 6.25 18.7498V43.7498H4.6875V16.4061ZM46.875 46.0936C46.875 46.3008 46.7927 46.4995 46.6462 46.646C46.4997 46.7925 46.3009 46.8748 46.0938 46.8748H3.90625C3.69905 46.8748 3.50034 46.7925 3.35382 46.646C3.20731 46.4995 3.125 46.3008 3.125 46.0936V45.3123H46.875V46.0936Z" fill="white"/>
<path d="M9.375 42.9688H40.625V41.4062H37.5V23.4375C37.5 23.2303 37.4177 23.0316 37.2712 22.8851C37.1247 22.7386 36.926 22.6562 36.7188 22.6562H32.0312C31.824 22.6562 31.6253 22.7386 31.4788 22.8851C31.3323 23.0316 31.25 23.2303 31.25 23.4375V41.4062H28.125V29.6875C28.125 29.4803 28.0427 29.2816 27.8962 29.1351C27.7497 28.9886 27.551 28.9062 27.3438 28.9062H22.6562C22.449 28.9062 22.2503 28.9886 22.1038 29.1351C21.9573 29.2816 21.875 29.4803 21.875 29.6875V41.4062H18.75V33.5938C18.75 33.3865 18.6677 33.1878 18.5212 33.0413C18.3747 32.8948 18.176 32.8125 17.9688 32.8125H13.2812C13.074 32.8125 12.8753 32.8948 12.7288 33.0413C12.5823 33.1878 12.5 33.3865 12.5 33.5938V41.4062H9.375V42.9688ZM32.8125 24.2188H35.9375V41.4062H32.8125V24.2188ZM23.4375 30.4688H26.5625V41.4062H23.4375V30.4688ZM14.0625 34.375H17.1875V41.4062H14.0625V34.375Z" fill="white"/>
<path d="M21.0938 1.5625H22.6562V3.125H21.0938V1.5625Z" fill="white"/>
<path d="M22.6562 3.125H24.2188V4.6875H22.6562V3.125Z" fill="white"/>
<path d="M21.0938 4.6875H22.6562V6.25H21.0938V4.6875Z" fill="white"/>
<path d="M19.5312 3.125H21.0938V4.6875H19.5312V3.125Z" fill="white"/>
<path d="M17.9688 7.8125H19.5312V9.375H17.9688V7.8125Z" fill="white"/>
<path d="M46.875 9.375H48.4375V10.9375H46.875V9.375Z" fill="white"/>
<path d="M45.3125 10.9375H46.875V12.5H45.3125V10.9375Z" fill="white"/>
<path d="M43.75 9.375H45.3125V10.9375H43.75V9.375Z" fill="white"/>
<path d="M45.3125 7.8125H46.875V9.375H45.3125V7.8125Z" fill="white"/>
<path d="M42.1875 4.6875H43.75V6.25H42.1875V4.6875Z" fill="white"/>
<path d="M14.0625 25.0001H12.5V27.3438C12.5 27.551 12.5823 27.7498 12.7288 27.8963C12.8753 28.0428 13.074 28.1251 13.2812 28.1251C15.951 28.0088 18.5357 27.1518 20.7461 25.6501L19.8789 24.3501C18.138 25.5218 16.1452 26.2664 14.0625 26.5235V25.0001Z" fill="white"/>
<path d="M12.5 21.875H14.0625V23.4375H12.5V21.875Z" fill="white"/>
</svg>
