<svg width="50" height="50" viewBox="0 0 50 50" fill="none" xmlns="http://www.w3.org/2000/svg">
<path d="M47.656 5.46875H40.9451L37.2732 1.78906C37.1242 1.64516 36.9256 1.56404 36.7185 1.5625H3.90603C3.69883 1.5625 3.50011 1.64481 3.3536 1.79132C3.20709 1.93784 3.12478 2.13655 3.12478 2.34375V3.36719C3.12677 4.50338 3.41391 5.6209 3.95989 6.61732C4.50587 7.61373 5.29322 8.45717 6.24978 9.07031V9.375H5.46853C4.8475 9.37685 4.25243 9.62438 3.8133 10.0635C3.37416 10.5027 3.12663 11.0977 3.12478 11.7188V12.5C3.12663 13.121 3.37416 13.7161 3.8133 14.1552C4.25243 14.5944 4.8475 14.8419 5.46853 14.8438H6.24978V16.4062C6.24739 17.3302 6.42768 18.2456 6.7803 19.0997C7.13292 19.9537 7.65091 20.7296 8.30447 21.3828C8.63553 21.7046 8.99361 21.9973 9.37478 22.2578V22.875C9.37736 23.5475 9.16173 24.2027 8.76025 24.7422C8.35878 25.2818 7.79312 25.6765 7.14822 25.8672L5.46072 26.375C4.33238 26.7088 3.34261 27.3993 2.63977 28.3429C1.93693 29.2866 1.55888 30.4327 1.56228 31.6094V47.6562C1.56228 47.8634 1.64459 48.0622 1.7911 48.2087C1.93761 48.3552 2.13633 48.4375 2.34353 48.4375H47.656C47.8632 48.4375 48.0619 48.3552 48.2085 48.2087C48.355 48.0622 48.4373 47.8634 48.4373 47.6562V6.25C48.4373 6.0428 48.355 5.84409 48.2085 5.69757C48.0619 5.55106 47.8632 5.46875 47.656 5.46875ZM6.24978 13.2812H5.46853C5.26133 13.2812 5.06261 13.1989 4.9161 13.0524C4.76959 12.9059 4.68728 12.7072 4.68728 12.5V11.7188C4.68728 11.5115 4.76959 11.3128 4.9161 11.1663C5.06261 11.0198 5.26133 10.9375 5.46853 10.9375H6.24978V13.2812ZM37.4998 4.22656L41.867 8.59375H37.4998V4.22656ZM35.9373 3.125V9.375C35.9373 9.5822 36.0196 9.78091 36.1661 9.92743C36.3126 10.0739 36.5113 10.1562 36.7185 10.1562H42.9685V42.9688H24.9998V31.6094C25.0032 30.4327 24.6251 29.2866 23.9223 28.3429C23.2194 27.3993 22.2297 26.7088 21.1013 26.375L19.4138 25.8672C18.7689 25.6765 18.2033 25.2818 17.8018 24.7422C17.4003 24.2027 17.1847 23.5475 17.1873 22.875V22.25C18.1479 21.6073 18.9355 20.7381 19.4805 19.7189C20.0255 18.6997 20.3112 17.562 20.3123 16.4062V14.8438H21.0935C21.7146 14.8419 22.3096 14.5944 22.7488 14.1552C23.1879 13.7161 23.4354 13.121 23.4373 12.5V11.7188C23.4354 11.0977 23.1879 10.5027 22.7488 10.0635C22.3096 9.62438 21.7146 9.37685 21.0935 9.375H20.3123V7.03125C20.3127 6.30299 20.167 5.58206 19.8839 4.9111C19.6007 4.24014 19.1859 3.63279 18.6638 3.125H35.9373ZM13.281 26.5078L10.2107 25.3594C10.6522 24.6583 10.8977 23.8516 10.9217 23.0234C11.6788 23.2946 12.4767 23.4347 13.281 23.4375C14.0855 23.4367 14.8837 23.2966 15.6404 23.0234C15.6643 23.8516 15.9098 24.6583 16.3513 25.3594L13.281 26.5078ZM14.0388 29.2031L13.6717 29.6875H12.8904L12.5232 29.2031L13.281 28.4453L14.0388 29.2031ZM17.4842 26.6016C17.6395 26.7173 17.8012 26.8242 17.9685 26.9219L16.8826 29.8359L14.6873 27.6484L17.4842 26.6016ZM20.3123 13.2812V10.9375H21.0935C21.3007 10.9375 21.4994 11.0198 21.646 11.1663C21.7925 11.3128 21.8748 11.5115 21.8748 11.7188V12.5C21.8748 12.7072 21.7925 12.9059 21.646 13.0524C21.4994 13.1989 21.3007 13.2812 21.0935 13.2812H20.3123ZM4.68728 3.36719V3.125H14.8435C15.3565 3.125 15.8645 3.22604 16.3384 3.42235C16.8123 3.61865 17.2429 3.90639 17.6057 4.26911C17.9684 4.63184 18.2561 5.06246 18.4524 5.53639C18.6487 6.01032 18.7498 6.51827 18.7498 7.03125V8.59375H9.91384C8.52831 8.59168 7.20011 8.04037 6.22039 7.06064C5.24066 6.08092 4.68935 4.75272 4.68728 3.36719ZM7.81228 16.4062V9.82031C8.49039 10.0437 9.19988 10.1571 9.91384 10.1562H18.7498V16.4062C18.7498 17.8567 18.1736 19.2477 17.148 20.2732C16.1224 21.2988 14.7314 21.875 13.281 21.875C11.8306 21.875 10.4396 21.2988 9.41404 20.2732C8.38845 19.2477 7.81228 17.8567 7.81228 16.4062ZM9.08572 26.6016L11.8748 27.6484L9.67947 29.8359L8.59353 26.9219C8.75759 26.8203 8.92947 26.7188 9.08572 26.6016ZM7.03103 46.875V34.375H5.46853V46.875H3.12478V31.6094C3.12147 30.7686 3.39179 29.9495 3.89492 29.2759C4.39805 28.6022 5.10669 28.1105 5.91384 27.875L7.1404 27.5078L8.6404 31.5234C8.68696 31.6465 8.76351 31.756 8.8631 31.8419C8.9627 31.9279 9.08219 31.9876 9.21072 32.0156C9.26497 32.0247 9.31979 32.0299 9.37478 32.0312C9.58232 32.0319 9.78169 31.9504 9.92947 31.8047L11.406 30.3203L11.6795 30.6797L9.47634 46.875H7.03103ZM11.0545 46.875L13.1795 31.25H13.3826L15.5076 46.875H11.0545ZM23.4373 46.875H21.0935V34.375H19.531V46.875H17.0857L14.8826 30.6797L15.156 30.3203L16.6326 31.8047C16.7804 31.9504 16.9797 32.0319 17.1873 32.0312C17.2423 32.0299 17.2971 32.0247 17.3513 32.0156C17.4799 31.9876 17.5994 31.9279 17.699 31.8419C17.7986 31.756 17.8751 31.6465 17.9217 31.5234L19.4217 27.5078L20.6482 27.875C21.4554 28.1105 22.164 28.6022 22.6671 29.2759C23.1703 29.9495 23.4406 30.7686 23.4373 31.6094V46.875ZM46.8748 46.875H24.9998V44.5312H43.7498C43.957 44.5312 44.1557 44.4489 44.3022 44.3024C44.4487 44.1559 44.531 43.9572 44.531 43.75V9.375C44.5295 9.16788 44.4484 8.96928 44.3045 8.82031L42.5076 7.03125H46.8748V46.875Z" fill="white"/>
<path d="M25.0539 17.9688H22.6562V19.5312H25.0539C25.2292 20.9061 25.856 22.1839 26.8361 23.1639C27.8161 24.144 29.0939 24.7708 30.4688 24.9461V27.3438H32.0312V24.9461C33.4061 24.7708 34.6839 24.144 35.6639 23.1639C36.644 22.1839 37.2708 20.9061 37.4461 19.5312H39.8438V17.9688H37.4461C37.2708 16.5939 36.644 15.3161 35.6639 14.3361C34.6839 13.356 33.4061 12.7292 32.0312 12.5539V10.1562H30.4688V12.5539C29.0939 12.7292 27.8161 13.356 26.8361 14.3361C25.856 15.3161 25.2292 16.5939 25.0539 17.9688ZM30.4688 14.1328V15.625H32.0312V14.1328C32.989 14.2965 33.8724 14.7534 34.5595 15.4405C35.2466 16.1276 35.7035 17.011 35.8672 17.9688H34.375V19.5312H35.8672C35.7035 20.489 35.2466 21.3724 34.5595 22.0595C33.8724 22.7466 32.989 23.2035 32.0312 23.3672V21.875H30.4688V23.3672C29.511 23.2035 28.6276 22.7466 27.9405 22.0595C27.2534 21.3724 26.7965 20.489 26.6328 19.5312H28.125V17.9688H26.6328C26.7965 17.011 27.2534 16.1276 27.9405 15.4405C28.6276 14.7534 29.511 14.2965 30.4688 14.1328Z" fill="white"/>
<path d="M39.8438 29.6875H26.5625V31.25H39.8438V29.6875Z" fill="white"/>
<path d="M28.9062 32.8125H26.5625V34.375H28.9062V32.8125Z" fill="white"/>
<path d="M39.8438 32.8125H30.4688V34.375H39.8438V32.8125Z" fill="white"/>
<path d="M39.8438 35.9375H26.5625V37.5H39.8438V35.9375Z" fill="white"/>
<path d="M13.2812 20.3125C15.0336 20.3125 16.4062 19.2828 16.4062 17.9688H14.8438C14.8438 18.2875 14.2352 18.75 13.2812 18.75C12.3273 18.75 11.7188 18.2875 11.7188 17.9688H10.1562C10.1562 19.2828 11.5289 20.3125 13.2812 20.3125Z" fill="white"/>
<path d="M10.9375 14.8438C11.1447 14.8438 11.3434 14.7614 11.4899 14.6149C11.6364 14.4684 11.7188 14.2697 11.7188 14.0625V13.2812C11.7188 13.074 11.6364 12.8753 11.4899 12.7288C11.3434 12.5823 11.1447 12.5 10.9375 12.5C10.7303 12.5 10.5316 12.5823 10.3851 12.7288C10.2386 12.8753 10.1562 13.074 10.1562 13.2812V14.0625C10.1562 14.2697 10.2386 14.4684 10.3851 14.6149C10.5316 14.7614 10.7303 14.8438 10.9375 14.8438Z" fill="white"/>
<path d="M15.625 14.8438C15.8322 14.8438 16.0309 14.7614 16.1774 14.6149C16.3239 14.4684 16.4062 14.2697 16.4062 14.0625V13.2812C16.4062 13.074 16.3239 12.8753 16.1774 12.7288C16.0309 12.5823 15.8322 12.5 15.625 12.5C15.4178 12.5 15.2191 12.5823 15.0726 12.7288C14.9261 12.8753 14.8438 13.074 14.8438 13.2812V14.0625C14.8438 14.2697 14.9261 14.4684 15.0726 14.6149C15.2191 14.7614 15.4178 14.8438 15.625 14.8438Z" fill="white"/>
</svg>
