<svg width="50" height="50" viewBox="0 0 50 50" fill="none" xmlns="http://www.w3.org/2000/svg">
<path d="M1.71957 39.5313L3.79247 42.2951L1.62649 47.3484C1.49526 47.6551 1.57232 48.011 1.81951 48.235C1.96675 48.3685 2.1552 48.4375 2.34441 48.4375C2.47335 48.4375 2.60304 48.4059 2.72054 48.3406L18.3455 39.7469C18.5958 39.6099 18.7507 39.3475 18.7507 39.0625C18.7507 38.7776 18.5958 38.5151 18.3455 38.3782L2.72054 29.7844C2.43063 29.6238 2.06671 29.6654 1.81951 29.8901C1.57232 30.114 1.49526 30.4699 1.62649 30.7766L3.79247 35.8299L1.71957 38.5937C1.51128 38.8714 1.51128 39.2536 1.71957 39.5313ZM5.25068 42.858L12.5849 41.1323L3.9565 45.8779L5.25068 42.858ZM12.5849 36.9927L5.25068 35.267L3.9565 32.2472L12.5849 36.9927ZM5.00636 36.8152L14.5574 39.0625L5.00636 41.3098L3.32097 39.0625L5.00636 36.8152Z" fill="white"/>
<path d="M35.9375 1.5625C29.3088 1.5625 23.8837 6.7532 23.4771 13.2812H21.4172L19.3024 11.1664L18.1976 12.2711L19.2078 13.2812H16.0156C11.4922 13.2812 7.8125 16.9613 7.8125 21.4844C7.8125 26.0075 11.4922 29.6875 16.0156 29.6875H24.6765L26.7914 31.8024L27.8961 30.6976L26.886 29.6875H41.7969C44.1658 29.6875 46.0938 31.6151 46.0938 33.9844C46.0938 36.3537 44.1658 38.2812 41.7969 38.2812H34.6985L32.5836 36.1664L31.4789 37.2711L32.489 38.2812H20.3125V39.8438H32.489L31.4789 40.8539L32.5836 41.9586L34.6985 39.8438H41.7969C45.0279 39.8438 47.6562 37.2154 47.6562 33.9844C47.6562 30.7533 45.0279 28.125 41.7969 28.125H26.886L27.8961 27.1149L26.7914 26.0101L24.6765 28.125H16.0156C12.3543 28.125 9.375 25.1461 9.375 21.4844C9.375 17.8226 12.3543 14.8438 16.0156 14.8438H19.2078L18.1976 15.8539L19.3024 16.9586L21.4172 14.8438H23.4771C23.8837 21.3718 29.3088 26.5625 35.9375 26.5625C42.8299 26.5625 48.4375 20.9549 48.4375 14.0625C48.4375 7.1701 42.8299 1.5625 35.9375 1.5625ZM35.9375 25C30.1702 25 25.4429 20.5101 25.0396 14.8438H27.3833C27.7798 19.2171 31.4626 22.6562 35.9375 22.6562C40.6761 22.6562 44.5312 18.8011 44.5312 14.0625C44.5312 9.32388 40.6761 5.46875 35.9375 5.46875C31.4626 5.46875 27.7798 8.90789 27.3833 13.2812H25.0396C25.4429 7.6149 30.1702 3.125 35.9375 3.125C41.9685 3.125 46.875 8.03146 46.875 14.0625C46.875 20.0935 41.9685 25 35.9375 25ZM34.1461 16.9586L36.4899 14.6149C36.795 14.3097 36.795 13.8153 36.4899 13.5101L34.1461 11.1664L33.0414 12.2711L34.0515 13.2812H28.9524C29.3426 9.77111 32.3246 7.03125 35.9375 7.03125C39.8148 7.03125 42.9688 10.1856 42.9688 14.0625C42.9688 17.9394 39.8148 21.0938 35.9375 21.0938C32.3246 21.0938 29.3426 18.3539 28.9524 14.8438H34.0515L33.0414 15.8539L34.1461 16.9586Z" fill="white"/>
<path d="M40.625 14.0625C40.625 11.4777 38.5223 9.375 35.9375 9.375V10.9375C37.661 10.9375 39.0625 12.3394 39.0625 14.0625C39.0625 15.7856 37.661 17.1875 35.9375 17.1875V18.75C38.5223 18.75 40.625 16.6473 40.625 14.0625Z" fill="white"/>
</svg>
